<svg height="200" viewBox="0 0 200 200" width="200" xmlns="http://www.w3.org/2000/svg"><g fill="none" fill-rule="evenodd"><g transform="translate(106 27)"><path d="m7.746269 2h39.507463v4.97546h-39.507463z" fill="#fff" stroke="#333" stroke-width="4"/><path d="m6.86224091 7.71165644-4.86224091 7.32290706v105.5010735c1.16721866 1.336961 2.84707884 2.482333 5.06401905 3.421653l.78939549.334467 1.56295444 4.151273c3.12026932 1.658335 9.19521572 2.55697 18.08363102 2.55697 8.9002118 0 15.3202978-.907447 19.1825592-2.640516l1.2543834-4.380573.8143994-.387884c1.8270107-.87017 3.24133-1.8965 4.248658-3.053773v-105.5026905l-4.8622409-7.32290706z" fill="#fff" stroke="#333" stroke-width="4"/><path d="m1.64179104 16.3190184c8.75621896 1.0879346 17.51243786 1.6319018 26.26865676 1.6319018s17.5124378-.5439672 26.2686567-1.6319018" stroke="#333" stroke-width="4"/><path d="m1.64179104 39.9815951c8.83970986 1.0825222 17.67941976 1.6237833 26.51912956 1.6237833 8.8397099 0 17.238806-.5412611 25.1972884-1.6237833v56.9776494c-4.4359375 2.2684791-12.9561255 3.4027185-25.5605641 3.4027185s-21.32305657-1.1342394-26.15585386-3.4027185z" fill="#90d3ff"/><path d="m46.7910448 41.3733912v57.3566701l5.7462686-1.7549812v-56.993485z" fill="#d5ebfe"/><g stroke="#333" stroke-width="4"><path d="m1.64179104 41.3619632c8.71725496 1.0577744 17.43451006 1.5866617 26.15176506 1.5866617s17-.5288873 24.8482349-1.5866617v55.6750716c-4.3744872 2.2166189-12.7766466 3.3249282-25.2064783 3.3249282s-21.02767221-1.1083093-25.79352166-3.3249282z"/><ellipse cx="27.5" cy="70.579755" fill="#ffeb7b" rx="11.544776" ry="11.46319"/><path d="m48.2686567 124c-7.642012 2.249067-16.3982309 2.948316-26.2686567 2.097746" stroke-linecap="round"/><path d="m14.7761194 125.727359c1.1083747.449411 1.9292702.674116 2.4626866.674116" stroke-linecap="round"/></g><path d="m12.4925373 1.63190184v5.80746071l-6.45060249 9.45843285v107.9426956l-3.40014377-3.203835v-104.7388606l6.04765884-9.45843285v-5.80746071z" fill="#333"/></g><g transform="translate(38 27)"><path d="m7.661765 2h39.676471v4.987805h-39.676471z" fill="#fff" stroke="#333" stroke-width="4"/><path d="m6.86305642 7.7195122-4.86305642 7.3342088v105.649507c1.16737271 1.339376 2.84751206 2.486656 5.06492858 3.42747l.78918555.334838 1.56294056 4.156946c3.11990671 1.660573 9.19457011 2.560445 18.08294531 2.560445 8.9001789 0 15.3200455-.908702 19.1819843-2.644131l1.2543866-4.38661.8140074-.38823c1.8274853-.871594 3.2421086-1.899686 4.2496217-3.059113v-105.651122l-4.8630564-7.3342088z" fill="#fff" stroke="#333" stroke-width="4"/><path d="m1.61764706 16.3414634c8.76225494 1.0894309 17.52450984 1.6341464 26.28676474 1.6341464s17.5245098-.5447155 26.2867647-1.6341464" stroke="#333" stroke-width="4"/><path d="m1.61764706 40.0365854c8.84796354 1.0840111 17.69592714 1.6260166 26.54389064 1.6260166 8.8479636 0 17.254902-.5420055 25.2208152-1.6260166v57.0560159c-4.4400793 2.2715991-12.9682227 3.4073987-25.5844301 3.4073987-12.6162075 0-21.34296604-1.1357996-26.18027574-3.4073987z" fill="#90d3ff"/><path d="m46.9117647 41.4302958v57.4355579l6.4705882-1.7573951v-57.0718732z" fill="#d5ebfe"/><g stroke="#333" stroke-width="4"><path d="m2.38235294 40.5c8.71725496 1.0757028 17.43450996 1.6135542 26.15176506 1.6135542 8.717255 0 17-.5378514 24.8482349-1.6135542v56.6187169c-4.3744872 2.2541887-12.7766466 3.3812831-25.2064783 3.3812831s-21.02767222-1.1270944-25.79352166-3.3812831z"/><ellipse cx="27.095588" cy="70.676829" fill="#ffeb7b" rx="11.345588" ry="11.481707"/><path d="m47.9705882 124c-7.7649304 2.252161-16.6619892 2.952371-26.6911764 2.100631" stroke-linecap="round"/><path d="m14 124.888088c1.0920751.450029 1.9008986.675043 2.4264706.675043" stroke-linecap="round"/></g><path d="m12.3235294 1.63414634v5.81544823l-6.35574069 9.47144183v108.0911586l-3.35014165-3.208241v-104.8829176l5.95872268-9.47144183v-5.81544823z" fill="#333"/></g><g transform="translate(74 40)"><path d="m7.746269 2h39.507463v4.987805h-39.507463z" fill="#fff" stroke="#333" stroke-width="4"/><path d="m6.86305642 7.7195122-4.86305642 7.3342088v105.649507c1.16737271 1.339376 2.84751206 2.486656 5.06492858 3.42747l.78918555.334838 1.56294056 4.156946c3.11990671 1.660573 9.19457011 2.560445 18.08294531 2.560445 8.9001789 0 15.3200455-.908702 19.1819843-2.644131l1.2543866-4.38661.8140074-.38823c1.8274853-.871594 3.2421086-1.899686 4.2496217-3.059113v-105.651122l-4.8630564-7.3342088z" fill="#fff" stroke="#333" stroke-width="4"/><path d="m1.64179104 16.3414634c8.75621896 1.0894309 17.51243786 1.6341464 26.26865676 1.6341464s17.5124378-.5447155 26.2686567-1.6341464" stroke="#333" stroke-width="4"/><path d="m1.64179104 40.0365854c8.83970986 1.0840111 17.67941976 1.6260166 26.51912956 1.6260166 8.8397099 0 17.238806-.5420055 25.1972884-1.6260166v57.0560159c-4.4359375 2.2715991-12.9561255 3.4073987-25.5605641 3.4073987s-21.32305657-1.1357996-26.15585386-3.4073987z" fill="#90d3ff"/><path d="m46.7910448 41.4302958v57.4355579l5.7462686-1.7573951v-57.0718732z" fill="#d5ebfe"/><g stroke="#333" stroke-width="4"><path d="m2.35820896 40.5c8.54632844 1.0757028 17.09265684 1.6135542 25.63898534 1.6135542 8.5463284 0 16.6666666-.5378514 24.3610147-1.6135542v56.6187169c-4.288713 2.2541887-12.5261242 3.3812831-24.7122337 3.3812831s-20.61536493-1.1270944-25.28776634-3.3812831z"/><ellipse cx="27.5" cy="70.676829" fill="#ffeb7b" rx="11.544776" ry="11.481707"/><path d="m47.6567164 124c-7.642012 2.252161-16.3982309 2.952371-26.2686567 2.100631" stroke-linecap="round"/><path d="m14 124.888088c1.1083747.450029 1.9292702.675043 2.4626866.675043" stroke-linecap="round"/></g><path d="m11.8507463 1.63414634v5.81544823l-6.45060254 9.47144183v108.0911586l-3.40014376-3.208241v-104.8829176l6.04765884-9.47144183v-5.81544823z" fill="#333"/></g><g stroke="#333" stroke-width="4" transform="matrix(.8660254 .5 -.5 .8660254 111.112505 11.063467)"><path d="m19.5-4.27195068 22.15336 41.81290828-1.6210442.9769073c-5.7115735 3.4420273-12.5677951 5.1528668-20.5323158 5.1528668s-14.8207423-1.7108395-20.53231579-5.1528668l-1.62104416-.9769073z" fill="#ffeb7b"/><g fill="#fff"><path d="m5 33.804878c-.85953324 0-1.69485155-.198773-2.45038294-.5751539-.72638596-.3618616-1.03261657-.9598403-1.11029052-1.5739285-.02936403-.2321511-.01949215-.4275438.01063093-.6254154.02885269-.1895268.07618891-.3683209.14222225-.5710094.08849461-.271633.21997512-.6080465.394203-1.0174899.29641763-.6965947.72249415-1.615803 1.20544784-2.6079807.44816928-.9207167.91590844-1.8431721 1.28769531-2.5396719.19622455-.3676041.36266414-.6667223.49480213-.8871686.08637896-.1441064.16236852-.262428.24039294-.369259.0781376-.106986.15669219-.2024189.26357549-.3066212.57766581-.5631765 1.13915402-.8713958 2.19838722-.4252288 2.01236416.8476418 3.51576095 3.5412994 3.51576095 5.8132518 0 3.0445861-3.13330546 5.6856755-6.1924446 5.6856755z"/><path d="m32.676944 41.1999593c-.9522307 1.5362322-7.0195731 2.4963487-8.5080264 1.0511617-1.0585424-1.0277726-1.6689176-2.4409262-1.6689176-3.946243 0-3.0375661 2.4624339-5.5 5.5-5.5s5.5 2.4624339 5.5 5.5c0 1.0348472-.2881945 2.0321901-.823056 2.8950813z"/><circle cx="22" cy="12.304878" r="5.5"/></g></g><g transform="translate(12.646484 11)"><path d="m11.3535156 0 2.71875 12.2560976 10.0947266-12.2560976z" fill="#90d3ff"/><g fill="#ffeb7b"><path d="m160.353516 136 2.71875 12.256098 13.846679-6.756098z"/><path d="m62.9953067 4.53320312 1.0769589 7.72289448 13.8466797-6.7560976z"/><path d="m126.496094 37-5.142578 15.1455078 8.423628-1.9345703z"/><path d="m8.95117188 48-5.59765626 14.9990234h6.93164058z"/></g><path d="m10.3535156 89 1.9824219 16.528503 4.6762695-7.0772835z" fill="#67aeff"/><path d="m4.52441406 129.256098-4.52441406 8.205816 9.83886719 2.550781z" fill="#90d3ff"/><path d="m156.63623 3.39453125-4.187011 6.39160156h15.916015z" fill="#67aeff"/><path d="m162.698242 58-1.562988 18.9936523 8.781738 2.2309103z" fill="#90d4ff"/></g></g></svg>
