<?xml version="1.0" encoding="UTF-8"?>
<svg width="200px" height="200px" viewBox="0 0 200 200" version="1.1" xmlns="http://www.w3.org/2000/svg" xmlns:xlink="http://www.w3.org/1999/xlink">
    <!-- Generator: Sketch 61 (89581) - https://sketch.com -->
    <title>Artboard</title>
    <desc>Created with Sketch.</desc>
    <g id="Artboard" stroke="none" stroke-width="1" fill="none" fill-rule="evenodd">
        <g id="Group-5" transform="translate(38.000000, 27.000000)">
            <g id="Beer-Can-Copy" transform="translate(68.000000, 0.000000)">
                <rect id="Rectangle" stroke="#333333" stroke-width="4" fill="#FFFFFF" x="7.74626866" y="2" width="39.5074627" height="4.97546012"></rect>
                <path d="M6.86224091,7.71165644 L2,15.0345635 L2,120.535637 C3.16721866,121.872598 4.84707884,123.01797 7.06401905,123.95729 L7.85341454,124.291757 L9.41636898,128.44303 C12.5366383,130.101365 18.6115847,131 27.5,131 C36.4002118,131 42.8202978,130.092553 46.6825592,128.359484 L47.9369426,123.978911 L48.751342,123.591027 C50.5783527,122.720857 51.992672,121.694527 53,120.537254 L53,15.0345635 L48.1377591,7.71165644 L6.86224091,7.71165644 Z" id="Combined-Shape" stroke="#333333" stroke-width="4" fill="#FFFFFF"></path>
                <path d="M1.64179104,16.3190184 C10.39801,17.406953 19.1542289,17.9509202 27.9104478,17.9509202 C36.6666667,17.9509202 45.4228856,17.406953 54.1791045,16.3190184" id="Path-34" stroke="#333333" stroke-width="4"></path>
                <path d="M1.64179104,39.9815951 C10.4815009,41.0641173 19.3212108,41.6053784 28.1609206,41.6053784 C37.0006305,41.6053784 45.3997266,41.0641173 53.358209,39.9815951 L53.358209,96.9592445 C48.9222715,99.2277236 40.4020835,100.361963 27.7976449,100.361963 C15.1932063,100.361963 6.47458833,99.2277236 1.64179104,96.9592445 L1.64179104,39.9815951 Z" id="Path-34-Copy" fill="#90D3FF"></path>
                <polygon id="Path-2" fill="#D5EBFE" points="46.7910448 41.3733912 46.7910448 98.7300613 52.5373134 96.9750801 52.5373134 39.9815951"></polygon>
                <path d="M1.64179104,41.3619632 C10.359046,42.4197376 19.0763011,42.9486249 27.7935561,42.9486249 C36.5108111,42.9486249 44.7935561,42.4197376 52.641791,41.3619632 L52.641791,97.0370348 C48.2673038,99.2536537 39.8651444,100.361963 27.4353127,100.361963 C15.005481,100.361963 6.40764049,99.2536537 1.64179104,97.0370348 L1.64179104,41.3619632 Z" id="Path-34-Copy" stroke="#333333" stroke-width="4"></path>
                <ellipse id="Oval" stroke="#333333" stroke-width="4" fill="#FFEB7B" cx="27.5" cy="70.5797546" rx="11.5447761" ry="11.4631902"></ellipse>
                <path d="M48.2686567,124 C40.6266447,126.249067 31.8704258,126.948316 22,126.097746" id="Path-35" stroke="#333333" stroke-width="4" stroke-linecap="round"></path>
                <path d="M14.7761194,125.727359 C15.8844941,126.17677 16.7053896,126.401475 17.238806,126.401475" id="Path-36" stroke="#333333" stroke-width="4" stroke-linecap="round"></path>
                <polygon id="Path" fill="#333333" points="12.4925373 1.63190184 12.4925373 7.43936255 6.04193481 16.8977954 6.04193481 124.840491 2.64179104 121.636656 2.64179104 16.8977954 8.68944988 7.43936255 8.68944988 1.63190184"></polygon>
            </g>
            <g id="Beer-Can-Copy-2">
                <rect id="Rectangle" stroke="#333333" stroke-width="4" fill="#FFFFFF" x="7.66176471" y="2" width="39.6764706" height="4.98780488"></rect>
                <path d="M6.86305642,7.7195122 L2,15.053721 L2,120.703228 C3.16737271,122.042604 4.84751206,123.189884 7.06492858,124.130698 L7.85411413,124.465536 L9.41705469,128.622482 C12.5369614,130.283055 18.6116248,131.182927 27.5,131.182927 C36.4001789,131.182927 42.8200455,130.274225 46.6819843,128.538796 L47.9363709,124.152186 L48.7503783,123.763956 C50.5778636,122.892362 51.9924869,121.86427 53,120.704843 L53,15.053721 L48.1369436,7.7195122 L6.86305642,7.7195122 Z" id="Combined-Shape" stroke="#333333" stroke-width="4" fill="#FFFFFF"></path>
                <path d="M1.61764706,16.3414634 C10.379902,17.4308943 19.1421569,17.9756098 27.9044118,17.9756098 C36.6666667,17.9756098 45.4289216,17.4308943 54.1911765,16.3414634" id="Path-34" stroke="#333333" stroke-width="4"></path>
                <path d="M1.61764706,40.0365854 C10.4656106,41.1205965 19.3135742,41.662602 28.1615377,41.662602 C37.0095013,41.662602 45.4164397,41.1205965 53.3823529,40.0365854 L53.3823529,97.0926013 C48.9422736,99.3642004 40.4141302,100.5 27.7979228,100.5 C15.1817153,100.5 6.45495676,99.3642004 1.61764706,97.0926013 L1.61764706,40.0365854 Z" id="Path-34-Copy" fill="#90D3FF"></path>
                <polygon id="Path-2" fill="#D5EBFE" points="46.9117647 41.4302958 46.9117647 98.8658537 53.3823529 97.1084586 53.3823529 40.0365854"></polygon>
                <path d="M2.38235294,40.5 C11.0996079,41.5757028 19.8168629,42.1135542 28.534118,42.1135542 C37.251373,42.1135542 45.534118,41.5757028 53.3823529,40.5 L53.3823529,97.1187169 C49.0078657,99.3729056 40.6057063,100.5 28.1758746,100.5 C15.7460429,100.5 7.14820238,99.3729056 2.38235294,97.1187169 L2.38235294,40.5 Z" id="Path-34-Copy" stroke="#333333" stroke-width="4"></path>
                <ellipse id="Oval" stroke="#333333" stroke-width="4" fill="#FFEB7B" cx="27.0955882" cy="70.6768293" rx="11.3455882" ry="11.4817073"></ellipse>
                <path d="M47.9705882,124 C40.2056578,126.252161 31.308599,126.952371 21.2794118,126.100631" id="Path-35" stroke="#333333" stroke-width="4" stroke-linecap="round"></path>
                <path d="M14,124.888088 C15.0920751,125.338117 15.9008986,125.563131 16.4264706,125.563131" id="Path-36" stroke="#333333" stroke-width="4" stroke-linecap="round"></path>
                <polygon id="Path" fill="#333333" points="12.3235294 1.63414634 12.3235294 7.44959457 5.96778871 16.9210364 5.96778871 125.012195 2.61764706 121.803954 2.61764706 16.9210364 8.57636974 7.44959457 8.57636974 1.63414634"></polygon>
            </g>
            <g id="Beer-Can" transform="translate(36.000000, 13.000000)">
                <rect id="Rectangle" stroke="#333333" stroke-width="4" fill="#FFFFFF" x="7.74626866" y="2" width="39.5074627" height="4.98780488"></rect>
                <path d="M6.86305642,7.7195122 L2,15.053721 L2,120.703228 C3.16737271,122.042604 4.84751206,123.189884 7.06492858,124.130698 L7.85411413,124.465536 L9.41705469,128.622482 C12.5369614,130.283055 18.6116248,131.182927 27.5,131.182927 C36.4001789,131.182927 42.8200455,130.274225 46.6819843,128.538796 L47.9363709,124.152186 L48.7503783,123.763956 C50.5778636,122.892362 51.9924869,121.86427 53,120.704843 L53,15.053721 L48.1369436,7.7195122 L6.86305642,7.7195122 Z" id="Combined-Shape" stroke="#333333" stroke-width="4" fill="#FFFFFF"></path>
                <path d="M1.64179104,16.3414634 C10.39801,17.4308943 19.1542289,17.9756098 27.9104478,17.9756098 C36.6666667,17.9756098 45.4228856,17.4308943 54.1791045,16.3414634" id="Path-34" stroke="#333333" stroke-width="4"></path>
                <path d="M1.64179104,40.0365854 C10.4815009,41.1205965 19.3212108,41.662602 28.1609206,41.662602 C37.0006305,41.662602 45.3997266,41.1205965 53.358209,40.0365854 L53.358209,97.0926013 C48.9222715,99.3642004 40.4020835,100.5 27.7976449,100.5 C15.1932063,100.5 6.47458833,99.3642004 1.64179104,97.0926013 L1.64179104,40.0365854 Z" id="Path-34-Copy" fill="#90D3FF"></path>
                <polygon id="Path-2" fill="#D5EBFE" points="46.7910448 41.4302958 46.7910448 98.8658537 52.5373134 97.1084586 52.5373134 40.0365854"></polygon>
                <path d="M2.35820896,40.5 C10.9045374,41.5757028 19.4508658,42.1135542 27.9971943,42.1135542 C36.5435227,42.1135542 44.6638609,41.5757028 52.358209,40.5 L52.358209,97.1187169 C48.069496,99.3729056 39.8320848,100.5 27.6459753,100.5 C15.4598658,100.5 7.03061037,99.3729056 2.35820896,97.1187169 L2.35820896,40.5 Z" id="Path-34-Copy" stroke="#333333" stroke-width="4"></path>
                <ellipse id="Oval" stroke="#333333" stroke-width="4" fill="#FFEB7B" cx="27.5" cy="70.6768293" rx="11.5447761" ry="11.4817073"></ellipse>
                <path d="M47.6567164,124 C40.0147044,126.252161 31.2584855,126.952371 21.3880597,126.100631" id="Path-35" stroke="#333333" stroke-width="4" stroke-linecap="round"></path>
                <path d="M14,124.888088 C15.1083747,125.338117 15.9292702,125.563131 16.4626866,125.563131" id="Path-36" stroke="#333333" stroke-width="4" stroke-linecap="round"></path>
                <polygon id="Path" fill="#333333" points="11.8507463 1.63414634 11.8507463 7.44959457 5.40014376 16.9210364 5.40014376 125.012195 2 121.803954 2 16.9210364 8.04765884 7.44959457 8.04765884 1.63414634"></polygon>
            </g>
        </g>
    </g>
</svg>