<svg xmlns="http://www.w3.org/2000/svg" width="200" height="200" fill="none" fill-rule="evenodd"><g stroke="#333" stroke-width="4"><path d="M79.746 35h39.507v4.988H79.746zm-.883 5.72L74 48.054v105.65c1.167 1.34 2.848 2.487 5.065 3.427l.8.335 1.563 4.157c3.12 1.66 9.195 2.56 18.083 2.56 8.9 0 15.32-.9 19.182-2.644l1.254-4.387.814-.388c1.827-.872 3.242-1.9 4.25-3.06V48.054l-4.863-7.334H78.863z" fill="#fff"/><path d="M73.642 49.34c8.756 1.09 17.512 1.634 26.27 1.634s17.512-.545 26.27-1.634"/></g><path d="M73.642 73.037c8.84 1.084 17.68 1.626 26.52 1.626s17.24-.542 25.197-1.626v57.056c-4.436 2.272-12.956 3.407-25.56 3.407s-21.323-1.136-26.156-3.407V73.037z" fill="#90d3ff"/><path fill="#d5ebfe" d="M118.79 74.43v57.436l5.746-1.757V73.037z"/><g stroke="#333" stroke-width="4"><path d="M74.358 73.5a205.11 205.11 0 0 0 25.639 1.614c8.546 0 16.667-.538 24.36-1.614v56.62c-4.29 2.254-12.526 3.38-24.712 3.38s-20.615-1.127-25.288-3.38V73.5z"/><ellipse fill="#ffeb7b" cx="99.5" cy="103.677" rx="11.545" ry="11.482"/><path d="M119.657 157c-7.642 2.252-16.398 2.952-26.27 2.1M86 157.888c1.108.45 1.93.675 2.463.675" stroke-linecap="round"/></g><path fill="#333" d="M83.85 34.634v5.815l-6.45 9.47v108.09l-3.4-3.208V49.92l6.048-9.47v-5.815z"/></svg>
