<svg xmlns="http://www.w3.org/2000/svg" width="500" height="500"><style><![CDATA[.B{stroke-width:4}.C{stroke:#333}.D{fill:#ffeb7b}.E{fill:#90d3ff}]]></style><g fill="none" fill-rule="evenodd"><path d="M369.985 400.747h87.007c-12.348-34.226-28.223-51.786-47.624-52.68s-30.305 7.015-32.712 23.725l-6.67 28.955zm-250.94 0H162c8.585-22.366 14.783-35.1 18.594-38.235s11.764-8.294 23.86-15.513c-12.852-1.187-27.766 1.507-44.745 8.082s-30.533 21.797-40.664 45.666z" class="E"/><path d="M396.755 347H198.887c-58.796 2.282-88.194 38.114-88.194 107.495h351.39c0-71.663-21.776-107.495-65.327-107.495z" class="B C"/><path d="M399.995 348c25.985 18.21 40.817 35.792 44.496 52.748 7.094.355 4.055.012 11.597 0-9.1-34.5-27.796-52.083-56.092-52.748z" fill="#d5ebfe"/><g class="C"><g class="B"><path d="M213.64 347c-34.426 2.188-51.64 29.924-51.64 83.208m-18.63 0h126.05c5.054 0 7.58 2.753 7.58 8.26"/><path d="M262.447 438.468h28.904c10.66.473 16 5.815 16 16.027m-37.92-24.287h139.95M401.593 347c-21.072.148-31.607 27.876-31.607 83.185"/></g><path d="M215.724 347c-35.797-90.376-35.797-146.1 0-167.14s61.977-24.268 78.54-9.653c14.824-7.058 26.05-8.234 33.683-3.527 11.447 7.06 42.04 26.454 34.88 75.24 6.525 4.863 20.9 16.358 20.9 30.023 0 9.1-3.178 18.403-9.535 27.878 12.36 8.72 19.797 16.913 22.307 24.58s4.21 15.2 5.104 22.598h-185.87z" fill="#333"/><g class="B"><path d="M225 432h9v20h-9z" class="E"/><circle cx="229.5" cy="442" r="5.5" class="D"/><path d="M211.94 262.17l10.74 5.442.004 1.224c.08 22.642 10.24 40.685 26.387 46.244 4.028 1.387 8.254 1.95 12.587 1.7l2.99-.173-14.143 40.622c1 9.03 7.634 13.475 20.722 13.475 13.413 0 28.544-8.11 45.33-24.47l-10.15-63.886.297-.58c1.84-3.598 3.444-7.374 4.793-11.293 11.275-32.745 1.352-65.636-21.728-73.583-19.478-6.707-42.98 6.363-56.594 31.35l-.06.104-21.172 33.824z" fill="#fff"/><ellipse cx="318.5" cy="256" rx="12.5" ry="15" class="D"/><path d="M318.693 260.22L277 296.477l-22.024-8.236"/></g><circle stroke-width="3" cx="250.5" cy="286.5" r="4" class="D"/><g class="B"><g fill="#fff"><path d="M156.97 191.353L156.968 164H187a8 8 0 0 0 8-8V69a8 8 0 0 0-8-8H67a8 8 0 0 0-8 8v87a8 8 0 0 0 8 8h63.304l26.664 27.353z"/><path d="M113 74h23v1h-23zm-.48 3L110 80.627l-.02 64.97c-.008.105.022.17.248.355.45.37 1.3.74 2.515 1.052l1 .26.916 2.442c1.774.822 5.174 1.294 10.08 1.294 4.918 0 8.508-.476 10.705-1.356l.734-2.574.997-.335c.85-.286 1.416-.597 1.7-.88.128-.128.143-.168.142-.202l-.014-.135-.01-.2v-64.68L136.48 77h-23.96z"/></g><path d="M109 82a121 121 0 0 0 31 0"/></g></g><path d="M109 96a131.35 131.35 0 0 0 15.896.968c5.3 0 10.333-.323 15.104-.968v33.97c-2.66 1.353-7.766 2.03-15.322 2.03s-12.782-.676-15.678-2.03V96z" class="E"/><path fill="#d5ebfe" d="M136 96.83V131l3-1.046V96z"/><g class="B C"><path d="M110 96c4.957.645 9.914.968 14.87.968s9.667-.323 14.13-.968v33.97c-2.487 1.353-7.265 2.03-14.333 2.03s-11.957-.676-14.667-2.03V96z"/><circle cx="124.5" cy="114.5" r="6.5" class="D"/></g><path fill="#333" d="M115 73v3.488l-3.93 5.68V147l-2.07-1.924V82.17l3.684-5.68V73z"/><path d="M119.044 400.747h44.836m206.12 0l87 .253M50.836 454.495h425.06" class="B C"/><path fill="#333" d="M266.373 314.877l8.57-3.77-14.66 57.36-5.307-3.32-4.476-6.133z"/><g stroke="#fff" stroke-linecap="round"><path d="M319 177c6.846 1.37 11.513 2.753 14 4.148 8.642 4.848 12.695 10.98 13.25 11.984" stroke-width="5"/><path d="M351 203c2.908 4.883 4.362 9.23 4.362 13.043" class="B"/></g></g></svg>
