<?xml version="1.0" encoding="UTF-8"?>
<svg width="200px" height="200px" viewBox="0 0 200 200" version="1.1" xmlns="http://www.w3.org/2000/svg" xmlns:xlink="http://www.w3.org/1999/xlink">
    <!-- Generator: Sketch 61 (89581) - https://sketch.com -->
    <title>Artboard Copy</title>
    <desc>Created with Sketch.</desc>
    <g id="Artboard-Copy" stroke="none" stroke-width="1" fill="none" fill-rule="evenodd">
        <g id="Group-4" transform="translate(16.000000, 38.000000)">
            <path d="M26.7513974,93.7165056 C26.6068438,61.938188 37.6773792,46.0490292 59.9630036,46.0490292 C82.248628,46.0490292 93.7129474,57.7989206 94.3559617,81.2987034 C118.277645,82.3069651 130.238487,76.1094646 130.238487,62.706202 C130.238487,49.3029394 127.939198,36.5839934 123.340621,24.549364 L123.340621,9 L150.957837,9 C154.570569,10.7545867 156.376935,13.3044377 156.376935,16.649553 C156.376935,19.9946683 154.570569,22.6279387 150.957837,24.549364 L138.060997,24.549364 C155.186999,35.9917161 163.75,54.3781718 163.75,79.7087309 C163.75,105.03929 163.75,109.708548 163.75,93.7165056 L26.7513974,93.7165056 Z" id="Path-37" fill="#90D3FF"></path>
            <path d="M137.880859,25.2338867 C143.858879,32.4187826 147.741854,38.1995443 149.529785,42.5761719 C151.317716,46.9527995 153.182462,54.4902344 155.124023,65.1884766 L156.100586,80.4189453 L163.75,89.347168 L163.75,69.6186523 L158.795898,49.3461914 L150.81543,36.6723633 L141.291682,27.171875 L137.880859,25.2338867 Z" id="Path" fill="#D5EBFE"></path>
            <path d="M26.7513974,93.7165056 C26.6068438,61.938188 37.6773792,46.0490292 59.9630036,46.0490292 C82.248628,46.0490292 93.7129474,57.7989206 94.3559617,81.2987034 C118.277645,82.3069651 130.238487,76.1094646 130.238487,62.706202 C130.238487,49.3029394 127.939198,36.5839934 123.340621,24.549364 L123.340621,9 L150.957837,9 C154.570569,10.7545867 156.376935,13.3044377 156.376935,16.649553 C156.376935,19.9946683 154.570569,22.6279387 150.957837,24.549364 L138.060997,24.549364 C155.186999,35.9917161 163.75,54.3781718 163.75,79.7087309 C163.75,105.03929 163.75,109.708548 163.75,93.7165056 L26.7513974,93.7165056 Z" id="Path-37" stroke="#333333" stroke-width="4" stroke-linejoin="round"></path>
            <g id="Group-2" transform="translate(31.750000, 74.000000)">
                <g id="Group" transform="translate(6.541682, 8.000000)" stroke="#333333" stroke-width="4">
                    <ellipse id="Oval" fill="#CBCACA" cx="21.5" cy="21" rx="19.5" ry="19"></ellipse>
                    <ellipse id="Oval" fill="#FFFFFF" cx="21.5" cy="21" rx="9.18" ry="8.92"></ellipse>
                </g>
                <path d="M27.5416817,0 C42.4533699,0 54.5416817,12.0288478 54.5416817,26.8671835 C54.5416817,27.5849923 54.513393,28.2962263 54.4578645,28.999842 L0.625498884,28.999842 C0.569970365,28.2962263 0.541681681,27.5849923 0.541681681,26.8671835 C0.541681681,12.0288478 12.6299934,0 27.5416817,0 Z" id="Combined-Shape" fill="#90D3FF"></path>
                <path d="M26.25,2 C35.2593681,7.48307292 40.8136127,12.5777181 42.9127338,17.2839355 C45.0118549,21.990153 46.0616596,25.389974 46.0621478,27.4833984 L53.8109271,27.4833984 L50.2440326,14.2270508 L43.4090717,7.04248047 L32.923476,2 L26.25,2 Z" id="Path-2" fill="#D5EBFE"></path>
                <path d="M2.54202933,26.999842 L52.541334,26.999842 C52.5415658,26.9556376 52.5416817,26.911418 52.5416817,26.8671835 C52.5416817,13.1356311 41.3510022,2 27.5416817,2 C13.7323612,2 2.54168168,13.1356311 2.54168168,26.8671835 C2.54168168,26.911418 2.54179759,26.9556376 2.54202933,26.999842 Z" id="Combined-Shape" stroke="#333333" stroke-width="4"></path>
                <rect id="Rectangle" fill="#333333" x="8.25" y="29" width="40" height="2"></rect>
            </g>
            <g id="Group-2-Copy" transform="translate(116.000000, 74.000000)">
                <g id="Group" transform="translate(6.541682, 8.000000)" stroke="#333333" stroke-width="4">
                    <ellipse id="Oval" fill="#CBCACA" cx="21.5" cy="21" rx="19.5" ry="19"></ellipse>
                    <ellipse id="Oval" fill="#FFFFFF" cx="21.5" cy="21" rx="9.18" ry="8.92"></ellipse>
                </g>
                <path d="M27.5416817,0 C42.4533699,0 54.5416817,12.0288478 54.5416817,26.8671835 C54.5416817,27.5849923 54.513393,28.2962263 54.4578645,28.999842 L0.625498884,28.999842 C0.569970365,28.2962263 0.541681681,27.5849923 0.541681681,26.8671835 C0.541681681,12.0288478 12.6299934,0 27.5416817,0 Z" id="Combined-Shape" fill="#90D3FF"></path>
                <path d="M26.25,2 C35.2593681,7.48307292 40.8136127,12.5777181 42.9127338,17.2839355 C45.0118549,21.990153 46.0616596,25.389974 46.0621478,27.4833984 L53.8109271,27.4833984 L50.2440326,14.2270508 L43.4090717,7.04248047 L32.923476,2 L26.25,2 Z" id="Path-2" fill="#D5EBFE"></path>
                <path d="M2.54202933,26.999842 L52.541334,26.999842 C52.5415658,26.9556376 52.5416817,26.911418 52.5416817,26.8671835 C52.5416817,13.1356311 41.3510022,2 27.5416817,2 C13.7323612,2 2.54168168,13.1356311 2.54168168,26.8671835 C2.54168168,26.911418 2.54179759,26.9556376 2.54202933,26.999842 Z" id="Combined-Shape" stroke="#333333" stroke-width="4"></path>
                <rect id="Rectangle" fill="#333333" x="8.25" y="29" width="40" height="2"></rect>
            </g>
            <rect id="Rectangle" stroke="#333333" stroke-width="4" fill="#FFEB7B" x="30" y="41" width="60" height="11" rx="5.5"></rect>
            <polyline id="Path-38" stroke="#333333" stroke-width="4" stroke-linecap="round" points="109.75 4 125.815367 4 131.75 13"></polyline>
            <rect id="Rectangle" stroke="#333333" stroke-width="4" fill="#FFFFFF" stroke-linejoin="round" x="36.75" y="-2" width="46" height="38"></rect>
            <rect id="Rectangle" stroke="#333333" stroke-width="4" fill="#FFEB7B" stroke-linejoin="round" x="52.75" y="-2" width="15" height="24"></rect>
            <g id="Group-3" transform="translate(0.000000, 20.000000)" stroke="#333333" stroke-linecap="round" stroke-linejoin="round" stroke-width="4">
                <line x1="5.85839844" y1="1.47363281" x2="19.3583984" y2="1.5" id="Path-39"></line>
                <line x1="5.85839844" y1="25.4736328" x2="19.3583984" y2="25.5" id="Path-39-Copy"></line>
                <line x1="0.858398437" y1="13.4736328" x2="14.3583984" y2="13.5" id="Path-39-Copy-2"></line>
                <line x1="20.25" y1="13.4868164" x2="24.3583984" y2="13.5" id="Path-39-Copy-3"></line>
            </g>
        </g>
        <path d="M61.8852539,91.2060547 C55.9083659,99.4739583 52.3019206,105.932129 51.065918,110.580566 C49.2119141,117.553223 48.2991837,129.202148 48.2916817,131.888672 C46.5112897,132.199544 44.797004,132.199544 43.1488245,131.888672 L44,118.777344 L46.9291992,103.409668 L56,90.1171875 L61.8852539,91.2060547 Z" id="Path-44" fill="#333333"></path>
    </g>
</svg>