<svg xmlns="http://www.w3.org/2000/svg" xmlns:xlink="http://www.w3.org/1999/xlink" width="1200" height="838"><style><![CDATA[.B{stroke-width:4}.C{stroke:#333}.D{fill:#d5ebfe}]]></style><g fill="none" fill-rule="evenodd"><g fill="#ffeb7b"><ellipse transform="matrix(.866025 .5 -.5 .866025 643.673948 642.992119)" cx="99.145" cy="49" rx="13.5" ry="31"/><ellipse transform="matrix(.866025 .5 -.5 .866025 680.398957 627.932518)" cx="145.609" cy="110" rx="13.5" ry="31"/><path d="M814.496 699c-1.274 4.64-3.393 9.707-6.304 14.75-8.56 14.827-20.734 23.825-27.19 20.097s-4.752-18.77 3.81-33.597l.74-1.252z"/><ellipse transform="matrix(.866025 .5 -.5 .866025 686.490682 497.19789)" cx="392.609" cy="56" rx="13.5" ry="31"/><path d="M863 811.847c6.457 3.728 18.63-5.27 27.2-20.097 4.356-7.545 6.937-15.146 7.57-21.283-6 2.063-31.892 9.447-32.33 10.278-7.35 13.984-8.528 27.583-2.433 31.102zm211-78c6.457 3.728 18.63-5.27 27.2-20.097 2.82-4.886 9.177-14.104 6.183-14.316-9.882-.7-17.463 0-28.68-.68-.337-.02-.595 1-.887 1.495-8.56 14.827-10.266 29.87-3.8 33.597z"/><ellipse transform="matrix(.866025 .5 -.5 .866025 722.849666 485.504315)" cx="432.609" cy="118" rx="13.5" ry="31"/><ellipse transform="matrix(.866025 .5 -.5 .866025 715.943278 433.279306)" cx="526.609" cy="79" rx="13.5" ry="31"/></g><g class="B C"><path d="M605.9 829.965c24.94-87.286 68.582-130.93 130.93-130.93h136.066c-49.072 56.112-61.966 84.168-38.684 84.168 34.924 0 92.398-8.47 145.984-84.168h195.1m-300.836-.877l24.518-79.55C881.446 632.77 867.223 637.4 856.3 632.5c-16.387-7.363-40.363-45.077-7.98-91.626l-24.56-19.565 60.002-95.6"/><path d="M930.47 450.393c-34.265-10.78-48.348-16.562-64.158-43.684s-14.512-73.002 0-101.434c6.6 15.11 27.744 33.254 37.52 37.215s40.348-.47 82.383-13.256 96.588.85 112.13 23.758 32.402 72.31 24.623 97.4-49.582 106.895-95.947 119.336-15.473-58.31-6.287-71.926 17.405-44.35-5.84-44.35-50.16 7.72-84.424-3.06z" fill="#333"/><path d="M1016.094 571.2l-35.906 127.846m-467.416-16.388l24.712-31.58c-21.978-30.792-32.967-53.148-32.967-67.067s1.116-32.237 3.348-54.952c2.205-8.34 7.18-12.5 14.92-12.5 11.613 0 13.403 7.004 14.698 12.5.863 3.67 2.68 17.046 5.446 40.127l26.313 18.887 59.87-25.417 54.84-77.815c7.972-8.65 15.918-10.5 23.838-5.58 11.88 7.394 8.632 15.73 6.186 20.202-1.63 2.982-19.4 30.352-53.338 82.1m49.798-76.083c7.648-5.56 14.02-6.778 19.115-3.657 7.643 4.682 7.643 13.2 3.362 20.204-2.854 4.676-19.54 30.173-50.056 76.492"/><path d="M712.482 553.43c3.605-2.172 7-1.606 10.153 1.696 4.745 4.953-3.125 19.883-7.712 26.682s-49.713 60.187-58.174 68.6-48.3 37.118-56.75 46.686c-5.64 6.378-14.166 17.222-25.577 32.53M20 721.7h174.4m135.643 54.525c-65.703-33.964-104.036-58.038-115-72.225-13.02 10.182-20.77 13.48-31.043 41.357 9.495 10.738 51.02 38.965 124.578 84.68l21.465-53.812z"/><path d="M330.043 776.225L313.85 696.48c8.7 3.003 18.253 11.4 28.656 25.22l32.56 74.074-45.023-19.55z"/><path d="M342.506 721.7h94.646c90.826 1.672 136.238 39.023 136.238 112.05M215.043 704c-6.815-30.052-13.693-51.086-20.633-63.1s-15-27.343-24.152-45.983"/></g><path d="M305.856 414.783c-1.266-12.07-1.82-18.28-1.664-18.625 4.1-9.08 11.322-6.016 16.94-25.043 9.826 13.242 12.654 29.99 8.9 43.043s-32.35 45.68-52.686 54.045c-13.557 5.576-46.91 8.364-100.06 8.364 20.66 49.334 34.666 77.233 42.02 83.697 11.033 9.695 45.537 46.35 75.016 30.504 19.652-10.564 35.7-20.732 48.172-30.504 3.874 20.813 10.27 35.058 19.186 42.736 13.375 11.518 45.816 40.04 37.123 59.844s-43.836 50.57-87.262 32.077c-28.95-12.328-76.05-45.663-141.295-100.005-8.56 7.016-32.102-11.532-70.623-55.646s-6.93-73.887 94.775-89.322" stroke="#171717" fill="#b2b2b2" class="B"/><path d="M53.527 434.328c4.472-22.875-6.252-63.6 8.943-81.488s44.473-27.97 65.06-22.93 69.82 3.3 92.225 3.3 55.56 12.848 63.8 30.896l-2.656 1.63 9.444-3.672c5.33 5.92 9.244 13.492 11.744 22.715s3.637 19.2 3.412 29.93c-49.58 19.6-87.192 36.473-112.838 50.623s-58.28 40.43-97.902 78.842c-11.38-7.19-19.518-13.954-24.416-20.295s-7.52-14.4-7.86-24.176c-8.943-28.333-11.924-50.125-8.943-65.375z" fill="#90d3ff"/><path d="M189.364 334.172c24.605 1.255 40.438 4.23 47.5 8.926s18.904 13.412 35.525 26.15c9.844 31.01 13.562 48.978 11.153 53.906 6.53-3.433 13.853-6.43 21.972-8.995 1.03-16.393-.274-27.444-3.912-33.155s-7.395-12.023-11.272-18.94l-6.788 2.043L272.4 351.1l-16.03-9.98-26.743-6.94h-40.254z" class="D"/><g class="B C"><path d="M62.47 499.703c-8.943-28.333-11.924-50.125-8.943-65.375 4.472-22.875-6.252-63.6 8.943-81.488s44.473-27.97 65.06-22.93 69.82 3.3 92.225 3.3 55.56 12.848 63.8 30.896"/><path d="M192.65 465.332c-25.646 14.15-58.28 40.43-97.902 78.842-11.38-7.19-19.518-13.954-24.416-20.295s-7.52-14.4-7.86-24.176c55.757-46.33 91.686-74.66 107.787-84.994s56.126-27.882 120.074-52.645c5.33 5.92 9.244 13.492 11.744 22.715s3.637 19.2 3.412 29.93c-49.58 19.6-87.192 36.473-112.838 50.623z"/><path fill="#fff" d="M383.313 838l117.664-165.437 90.562 71.305L524.805 838"/></g><path fill="#90d4ff" d="M462.156 727.144l38.82-54.582 90.563 71.305-36.648 51.908z"/><path d="M493.84 682.648l7.137-10.086 90.562 71.305-6.34 8.54z" class="D"/><path d="M462.156 727.144l38.82-54.582 90.562 71.305-36.648 51.908zm-161.9-274.024l62.592 91.055-20.352 16.1" class="B C"/><g transform="matrix(.939693 -.34202 .34202 .939693 474.707195 213.145581)"><g fill="#fff" class="B C"><path d="M2 237.625l5.442 14V252c0 2.317 5.744 6.193 15.157 9.293C33.41 264.853 47.326 267 61.5 267c14.155 0 27.812-2.14 38.34-5.702 9.118-3.085 14.628-6.94 14.628-9.298v-.444l6.53-14V39.247L114.91 15H7.067L2 39.207v198.418z"/><ellipse cx="60.5" cy="13" rx="53.5" ry="11"/></g><use xlink:href="#B" fill="#90d4ff"/><path d="M107.666 65.287l-.233 156.763L121 214l-.194-158.58z" class="D"/><g class="B C"><use xlink:href="#B"/><circle fill="#ffeb7b" cx="62" cy="145" r="28"/></g></g><g class="C B"><path d="M457.902 227.324L420 208m-13-6l-13-7"/><path d="M513.12 159.606l-15.237-39.722m-5.646-13.157l-4.977-13.9"/><path d="M617.072 170.83l20.635-37.205m6.45-12.782l7.45-12.748"/></g><g fill="#333"><path d="M59.848 356.284c3.846 16.777 6.667 31.424 8.463 43.94 2.693 18.775 5.223 31.82 2.6 41.418s1.277 31.52 5.8 41.33 6.34 23.14 12.047 28.34l21.64 19.26-15.67 13.602c-18.694-11.892-29-24.386-30.946-37.482s-3.955-21.003-6.055-23.72c-4.394-18.65-6.173-31.938-5.338-39.862 1.253-11.886 4.475-37.857 2.864-47.376-1.074-6.346.45-19.496 4.574-39.45zM497.47 225.47l3.323 24.325 60.77 167.387 16.936 34.06-8.525-1.293-11.534-13.156-68.354-187-3.68-24.325zM172.483 597.293l16.544 35.07 130.03 94.648-5.2-30.532-56.828-34.328zM896.55 618.27l25.257-21.95-29.067 112.083c-38.46 53.38-60.296 77.34-65.505 71.887-7.813-8.182 3.068-27.815 9.827-36.708 4.506-5.93 16.74-21.07 36.7-45.424l22.8-79.9zm-392.032-35.784c17.116 28.8 30.767 46.952 40.95 54.43l16.482 12.034-35.103 44.083-14.384-11.477 24.1-29.77-18.265-30.944-12.247-24.1-1.535-14.245z"/><ellipse transform="matrix(.848048 .529919 -.529919 .848048 397.247151 -399.365453)" cx="895" cy="493" rx="17" ry="29"/><ellipse transform="matrix(.848048 .529919 -.529919 .848048 377.646128 -381.247916)" cx="853.608" cy="467.88" rx="13" ry="29"/></g><g class="C"><path d="M858.3 479.672c6.43-8.58 12.194-11.545 17.293-8.89 7.648 3.98 9.023 13.14 4.407 20.125" stroke-width="5"/><path d="M669.125 393.96c-9.195 14.587-24.765 26.38-46.7 35.376m-8.075 3.19c-3.88 1.456-7.06 2.383-9.542 2.78M698.705 483L689 497.06c2.266 4.797 6.654 7.903 13.163 9.318M723.705 505L714 519.06c.577 3.1 3.918 5.62 10.023 7.562m-6.093 31.732L712 567.06c.126 1.416 1.564 2.565 4.315 3.45m-202.92-42.602c3.575-.43 6.625-.43 9.15 0s3.96 7.1 4.303 20.045c-7.177 1.837-12.167 2.296-14.97 1.378" stroke-linecap="round" class="B"/></g></g><defs ><path id="B" d="M121 55c0 8.837-26.64 16-59.5 16S2 63.837 2 55l-.206 159.566c15.17 11.015 35.653 16.396 61.45 16.145S108.29 224.89 121 214V55z"/></defs></svg>
