<svg xmlns="http://www.w3.org/2000/svg" width="74" height="20"><path d="M5.12 15.92c1 0 1.913-.147 2.74-.44s1.483-.737 1.97-1.33.73-1.323.73-2.2c0-.68-.137-1.28-.4-1.8a4.85 4.85 0 0 0-1.07-1.37c-.44-.393-1.027-.843-1.76-1.35l-.2-.16a1.63 1.63 0 0 0-.23-.14l-1.9-1.4c-.387-.313-.68-.637-.88-.97s-.3-.727-.3-1.18c0-.587.187-1.043.56-1.37s.867-.5 1.48-.5c.667 0 1.253.22 1.76.66s.907 1.007 1.2 1.7.467 1.42.52 2.18h.46l.1-4.88h-.46c-.04.307-.093.53-.16.67s-.16.2-.28.2c-.08 0-.177-.027-.3-.08L8.3 2c-.453-.253-.917-.45-1.4-.6s-1.1-.2-1.85-.2c-.893 0-1.717.137-2.47.4s-1.357.693-1.8 1.26S.1 4.14.1 4.98c0 .693.153 1.303.46 1.83s.7 1 1.18 1.4 1.12.867 1.92 1.4c1 .667 1.737 1.27 2.2 1.8s.7 1.2.7 1.95c0 .613-.217 1.093-.65 1.44s-1.017.52-1.75.52c-1.187 0-2.067-.493-2.64-1.48s-.907-2.273-1-3.86H.08L0 15.78h.46c.04-.307.093-.53.16-.67s.16-.2.28-.2c.16 0 .387.093.68.28.467.227.97.407 1.5.54s1.217.2 2.03.2zM14.5 3.44c.693 0 1.23-.147 1.6-.44s.57-.72.57-1.28-.2-.987-.57-1.28S15.193 0 14.5 0c-.707 0-1.247.147-1.62.44s-.56.72-.56 1.28.187.987.56 1.28.913.44 1.62.44zm3.04 12.2v-.42c-.413 0-.703-.103-.87-.3s-.25-.583-.25-1.13V5.04c-.933.187-2.093.28-3.48.28a13.29 13.29 0 0 1-1.24-.06v.42c.413 0 .703.14.87.42s.25.727.25 1.34v6.34c0 .547-.083.923-.25 1.13s-.457.3-.87.3v.42l3-.08 2.84.08zm7.14 3.62v-.42c-.573 0-1.003-.12-1.3-.36s-.43-.667-.43-1.28v-1.66c.467.253 1.087.38 1.86.38 1.4 0 2.527-.457 3.38-1.37s1.28-2.43 1.28-4.55c0-1.64-.32-2.887-.96-3.74A3 3 0 0 0 26 4.98c-1.413 0-2.427.5-3.04 1.5V5.06c-.933.187-2.093.28-3.48.28-.413 0-.827-.02-1.24-.06v.42c.413 0 .703.14.87.42s.25.727.25 1.34v9.94c0 .547-.083.923-.25 1.13s-.457.3-.87.3v.42l2.76-.08 3.1.06.58.02zm-1.02-3.94c-.293 0-.527-.053-.7-.16v-7.7c0-.413.143-.757.43-1.03s.623-.4 1-.4c.413 0 .74.33.98 1s.36 1.8.36 3.45c0 1.653-.163 2.877-.5 3.67s-.857 1.2-1.6 1.2zm14.14.32c1.92 0 3.4-.32 4.44-.96s1.56-1.613 1.56-2.92c0-.573-.193-1.117-.58-1.63s-1.003-.943-1.85-1.3-1.923-.553-3.23-.62v-.04c1-.12 1.847-.367 2.54-.74s1.213-.8 1.56-1.3.52-.997.52-1.5c0-.96-.463-1.723-1.4-2.3s-2.27-.85-4.03-.85l-.92.02-2.3.02c-1.533 0-2.68-.02-3.44-.06v.4c.427.027.733.08.92.16s.317.233.4.46.1.593.1 1.1v9.92c0 .507-.033.873-.1 1.1s-.197.38-.4.46-.503.133-.93.16v.4l3.48-.06 2.66.04.98.02zm-1.1-7.52h-.54V3.6c0-.48.027-.84.08-1.08s.157-.407.3-.5.383-.14.7-.14c.493 0 .85.243 1.07.73s.33 1.237.33 2.25c0 .987-.143 1.777-.43 2.37s-.8.9-1.5.9zm.76 7.06c-.373 0-.65-.043-.83-.13s-.303-.243-.37-.47-.1-.58-.1-1.06V8.46h.28c1.093 0 1.893.273 2.4.82s.76 1.347.76 2.4c0 2.333-.713 3.5-2.14 3.5zm11.98.74c1.093 0 2-.333 2.7-1s1.197-1.467 1.5-2.4l-.34-.12c-.64.893-1.447 1.34-2.42 1.34-.64 0-1.183-.273-1.63-.82s-.67-1.46-.67-2.74l.02-.72h5.16c0-2.987-1.26-4.48-3.78-4.48-1.547 0-2.8.457-3.73 1.37s-1.4 2.283-1.4 4.1c0 1.907.42 3.293 1.26 4.16s1.96 1.3 3.36 1.3zm1.38-6.84H48.5c.133-2.427.573-3.64 1.32-3.64.347 0 .603.34.77 1.02s.243 1.553.23 2.62zm8.68 6.84c1.093 0 2-.333 2.7-1s1.197-1.467 1.5-2.4l-.34-.12c-.64.893-1.447 1.34-2.42 1.34-.64 0-1.183-.273-1.63-.82s-.67-1.46-.67-2.74l.02-.72h5.16c0-2.987-1.26-4.48-3.78-4.48-1.547 0-2.8.457-3.73 1.37s-1.4 2.283-1.4 4.1c0 1.907.42 3.293 1.26 4.16s1.96 1.3 3.36 1.3zm1.38-6.84h-2.32c.133-2.427.573-3.64 1.32-3.64.347 0 .603.34.77 1.02s.243 1.553.23 2.62zm10.3 6.56v-.42c-.627 0-1.07-.117-1.33-.35s-.4-.663-.4-1.3v-6c0-.387.113-.743.34-1.07s.507-.563.84-.7c.187-.093.4-.14.64-.14-.68.453-1.02 1.073-1.02 1.86 0 .44.153.8.46 1.05s.747.4 1.32.4c.547 0 1-.177 1.33-.53s.5-.83.5-1.43c0-.547-.143-1.02-.43-1.42s-.757-.6-1.4-.6c-1.213 0-2.073.5-2.58 1.5V5.04c-.933.187-2.093.28-3.48.28a13.29 13.29 0 0 1-1.24-.06v.42c.413 0 .703.14.87.42s.25.727.25 1.34v6.34c0 .547-.083.923-.25 1.13s-.457.3-.87.3v.42l.42-.02 2.78-.06 2.8.06a4.08 4.08 0 0 0 .44.02z" fill="#171717" fill-rule="nonzero"/></svg>
