<svg xmlns="http://www.w3.org/2000/svg" width="24" height="24" fill="none" fill-rule="evenodd"><g transform="matrix(.707107 -.707107 .707107 .707107 .746952 9.732233)"><path d="M-.5 3.833L2.75-.5h6.5l3.25 4.333V17.5h-13V3.833z" stroke="#000" stroke-linejoin="round"/><circle stroke="#1a85ff" fill="#fff" cx="6" cy="3.5" r="2"/></g><path d="M13.54 17.1v-1.06c.527-.127.918-.367 1.175-.72s.385-.773.385-1.26c0-.3-.063-.557-.2-.77s-.287-.397-.48-.55a3.34 3.34 0 0 0-.62-.39l-.62-.3c-.193-.093-.353-.187-.48-.28s-.2-.203-.2-.33c0-.2.053-.337.16-.4s.267-.1.48-.1c.187 0 .362.04.525.12s.335.2.515.36l.85-.98a3.11 3.11 0 0 0-.665-.54c-.243-.147-.525-.247-.845-.3V8.56h-1.12V9.6c-.487.107-.865.327-1.135.66s-.405.753-.405 1.26c0 .293.063.543.2.75s.287.387.48.54a3.55 3.55 0 0 0 .62.395l.62.315c.193.1.353.202.48.305s.2.222.2.355c0 .193-.053.335-.16.425s-.287.135-.54.135c-.213 0-.428-.043-.645-.13s-.462-.23-.735-.43l-.74 1.16a2.76 2.76 0 0 0 .865.525c.323.123.628.202.915.235v1h1.12z" fill="#171717" fill-rule="nonzero"/></svg>
