<?xml version="1.0" encoding="UTF-8"?>
<svg width="200px" height="200px" viewBox="0 0 200 200" version="1.1" xmlns="http://www.w3.org/2000/svg" xmlns:xlink="http://www.w3.org/1999/xlink">
    <!-- Generator: Sketch 61 (89581) - https://sketch.com -->
    <title>Artboard Copy 2</title>
    <desc>Created with Sketch.</desc>
    <g id="Artboard-Copy-2" stroke="none" stroke-width="1" fill="none" fill-rule="evenodd">
        <rect id="Rectangle" stroke="#333333" stroke-width="4" x="46" y="35" width="87" height="108" rx="5"></rect>
        <rect id="Rectangle" stroke="#333333" stroke-width="4" fill="#D5EBFE" x="57" y="49" width="65" height="77" rx="4"></rect>
        <g id="Group-2" transform="translate(88.000000, 89.000000)">
            <g id="Group" transform="translate(35.978027, 45.500000) rotate(-13.000000) translate(-35.978027, -45.500000) translate(8.978027, 6.000000)">
                <path d="M16.2282687,55.974242 C12.9660047,48.5059223 9.55594373,44.0522347 6.18495032,42.5577487 C-1.23763891,39.2670405 -4.7363429,33.5556524 0.201231789,29.460563 C3.08782143,27.0665045 8.03569711,28.0407741 15.3807159,31.9147837 L15.3807159,6.25859749 C14.961494,1.08252604 17.4709868,-2 22.3515661,-2 C27.1997007,-2 29.8405537,1.02680758 29.7389994,6.1747942 L29.7389994,20.766541 C30.9159562,20.4335086 32.2404978,20.4397764 33.6706165,20.7931488 C35.4441258,21.2313707 36.7992229,22.0327841 37.6342353,23.1456782 C38.6452833,22.7829674 39.8455296,22.6542042 41.1975071,22.7450604 C42.9858089,22.8652386 44.3840342,23.5164742 45.3107222,24.6070826 C46.5294589,24.1806945 48.0986244,24.1905005 49.894981,24.6216417 C54.2347996,25.6632362 56,31.1316666 56,40.7293749 L56,41.1267011 L55.8481259,41.4938556 C52.9026257,48.6145785 51.428219,53.3972703 51.428219,55.5593536 C51.428219,59.1512847 51.428219,59.1512847 51.428219,62 L51.428219,64 L16.2282687,64 L16.2282687,55.974242 Z" id="Path-40" stroke="#333333" stroke-width="4" fill="#FFFFFF" stroke-linejoin="round"></path>
                <rect id="Rectangle" fill="#90D3FF" x="14" y="66" width="40" height="11"></rect>
                <rect id="Rectangle" fill="#D5EBFE" x="45" y="64" width="9" height="15"></rect>
                <rect id="Rectangle" stroke="#333333" stroke-width="4" stroke-linejoin="round" x="12" y="64" width="44" height="15"></rect>
            </g>
            <path d="M8,47.4313965 C11.7062174,49.0926921 14.4562174,49.9233398 16.25,49.9233398 C18.9406738,49.9233398 27.0205078,50.7800293 29.7253418,55.4890137 C32.4301758,60.197998 35.2993164,67.8835449 35.6386719,69.5881348 C35.9780273,71.2927246 31.361084,70.5559082 31.361084,70.9243164 C31.361084,71.1699219 30.3401693,68.3950195 28.2983398,62.5996094 L21.8282515,55.4890137 L11.3125,52.4313965 L8,47.4313965 Z" id="Path-41" fill="#333333"></path>
            <path d="M56.7185059,34 C58.3683033,37.3211263 58.9989999,39.3242187 58.6105957,40.0092773" id="Path-42" stroke="#333333" stroke-width="4" stroke-linecap="round"></path>
            <line x1="58.3441771" y1="46" x2="58.0279893" y2="49.4313965" id="Path-43" stroke="#333333" stroke-width="4" stroke-linecap="round"></line>
        </g>
        <g id="Beer-Can" transform="translate(76.000000, 58.000000)">
            <rect id="Rectangle" stroke="#333333" stroke-width="4" fill="#FFFFFF" x="5" y="2" width="15" height="1" rx="0.5"></rect>
            <path d="M3.69546797,5 L2,7.51562291 L2,53.9598007 C2.39896812,54.3158146 2.93706511,54.6417191 3.62605222,54.9293735 L4.4172022,55.2596812 L5.13773024,57.1433138 C6.46056566,57.679089 8.95169284,58 12.5,58 C16.0616715,58 18.6895245,57.6771576 20.3235383,57.0927277 L20.8835587,55.1682932 L21.701667,54.7843362 C22.2425481,54.5304883 22.6760278,54.2510398 23,53.963175 L23,7.51562291 L21.304532,5 L3.69546797,5 Z" id="Combined-Shape" stroke="#333333" stroke-width="4" fill="#FFFFFF"></path>
            <path d="M0,18 C4.10223765,18.4840663 8.2044753,18.7260994 12.3067129,18.7260994 C16.4089506,18.7260994 20.3067129,18.4840663 24,18 L24,43.4784226 C21.9414178,44.4928075 17.9874604,45 12.1381278,45 C6.28879529,45 2.24275268,44.4928075 0,43.4784226 L0,18 Z" id="Path-34-Copy" fill="#90D3FF"></path>
            <path d="M2,18 C5.58945794,18.4840663 9.17891589,18.7260994 12.7683738,18.7260994 C16.3578318,18.7260994 19.7683738,18.4840663 23,18 L23,43.4784226 C21.1987406,44.4928075 17.7390278,45 12.6208619,45 C7.50269588,45 3.96240859,44.4928075 2,43.4784226 L2,18 Z" id="Path-34-Copy" stroke="#333333" stroke-width="4"></path>
            <circle id="Oval" stroke="#333333" stroke-width="4" fill="#FFEB7B" cx="12.5" cy="31.5" r="4.5"></circle>
        </g>
        <circle id="Oval" fill="#333333" cx="89.5" cy="42.5" r="1.5"></circle>
        <circle id="Oval" stroke="#333333" stroke-width="3" cx="89" cy="135" r="3.5"></circle>
    </g>
</svg>